HIERARCHY
ROOT Character1_Hips
{
  OFFSET 0.00186996 15.1792 0.000213289
  CHANNELS 6 Xposition Yposition Zposition Zrotation Xrotation Yrotation
  JOINT Character1_LeftUpLeg
  {
    OFFSET 1.33984 -0.942852 0
    CHANNELS 6 Xposition Yposition Zposition Zrotation Xrotation Yrotation
    JOINT Character1_LeftLeg
    {
      OFFSET 1.03111 -5.48941 0.514162
      CHANNELS 6 Xposition Yposition Zposition Zrotation Xrotation Yrotation
      JOINT Character1_LeftFoot
      {
        OFFSET 0.584472 -7.37543 -1.61389
        CHANNELS 6 Xposition Yposition Zposition Zrotation Xrotation Yrotation
        JOINT Character1_LeftToeBase
        {
          OFFSET 0.308451 -0.815751 3.43202
          CHANNELS 6 Xposition Yposition Zposition Zrotation Xrotation Yrotation
          End Site
          {
            OFFSET 0 0 0
          }
        }
      }
    }
  }
  JOINT Character1_RightUpLeg
  {
    OFFSET -1.33984 -0.942851 0
    CHANNELS 6 Xposition Yposition Zposition Zrotation Xrotation Yrotation
    JOINT Character1_RightLeg
    {
      OFFSET -1.03111 -5.48941 0.514162
      CHANNELS 6 Xposition Yposition Zposition Zrotation Xrotation Yrotation
      JOINT Character1_RightFoot
      {
        OFFSET -0.584472 -7.37543 -1.61389
        CHANNELS 6 Xposition Yposition Zposition Zrotation Xrotation Yrotation
        JOINT Character1_RightToeBase
        {
          OFFSET -0.308451 -0.815752 3.43202
          CHANNELS 6 Xposition Yposition Zposition Zrotation Xrotation Yrotation
          End Site
          {
            OFFSET 0 0 0
          }
        }
      }
    }
  }
  JOINT Character1_Spine
  {
    OFFSET 0 1.05262 0
    CHANNELS 6 Xposition Yposition Zposition Zrotation Xrotation Yrotation
    JOINT Character1_Spine1
    {
      OFFSET 0 2.01813 0
      CHANNELS 6 Xposition Yposition Zposition Zrotation Xrotation Yrotation
      JOINT Character1_Spine2
      {
        OFFSET 0 2.01813 0
        CHANNELS 6 Xposition Yposition Zposition Zrotation Xrotation Yrotation
        JOINT Character1_LeftShoulder
        {
          OFFSET 1.05262 2.25701 0
          CHANNELS 6 Xposition Yposition Zposition Zrotation Xrotation Yrotation
          JOINT Character1_LeftArm
          {
            OFFSET 1.59242 -0.163556 -0.172858
            CHANNELS 6 Xposition Yposition Zposition Zrotation Xrotation Yrotation
            JOINT Character1_LeftForeArm
            {
              OFFSET 4.24537 -1.87801 -0.325368
              CHANNELS 6 Xposition Yposition Zposition Zrotation Xrotation Yrotation
              JOINT Character1_LeftHand
              {
                OFFSET 2.98616 -1.30581 0.326127
                CHANNELS 6 Xposition Yposition Zposition Zrotation Xrotation Yrotation
                JOINT Character1_LeftHandThumb1
                {
                  OFFSET 0.707167 -0.296377 0.777353
                  CHANNELS 6 Xposition Yposition Zposition Zrotation Xrotation Yrotation
                  JOINT Character1_LeftHandThumb2
                  {
                    OFFSET 0.248522 -0.159515 0.331579
                    CHANNELS 6 Xposition Yposition Zposition Zrotation Xrotation Yrotation
                    JOINT Character1_LeftHandThumb3
                    {
                      OFFSET 0.259194 -0.254061 0.227961
                      CHANNELS 6 Xposition Yposition Zposition Zrotation Xrotation Yrotation
                      JOINT Character1_LeftHandThumb4
                      {
                        OFFSET 0.226666 -0.258213 0.206782
                        CHANNELS 6 Xposition Yposition Zposition Zrotation Xrotation Yrotation
                        End Site
                        {
                          OFFSET 0 0 0
                        }
                      }
                    }
                  }
                }
                JOINT Character1_LeftHandIndex1
                {
                  OFFSET 1.48444 -0.354189 0.611986
                  CHANNELS 6 Xposition Yposition Zposition Zrotation Xrotation Yrotation
                  JOINT Character1_LeftHandIndex2
                  {
                    OFFSET 0.504725 -0.451988 0.0493911
                    CHANNELS 6 Xposition Yposition Zposition Zrotation Xrotation Yrotation
                    JOINT Character1_LeftHandIndex3
                    {
                      OFFSET 0.296442 -0.265513 0.0299126
                      CHANNELS 6 Xposition Yposition Zposition Zrotation Xrotation Yrotation
                      JOINT Character1_LeftHandIndex4
                      {
                        OFFSET 0.197651 -0.217277 0.0208596
                        CHANNELS 6 Xposition Yposition Zposition Zrotation Xrotation Yrotation
                        End Site
                        {
                          OFFSET 0 0 0
                        }
                      }
                    }
                  }
                }
                JOINT Character1_LeftHandMiddle1
                {
                  OFFSET 1.48537 -0.317031 0.212679
                  CHANNELS 6 Xposition Yposition Zposition Zrotation Xrotation Yrotation
                  JOINT Character1_LeftHandMiddle2
                  {
                    OFFSET 0.67206 -0.620935 0.0176346
                    CHANNELS 6 Xposition Yposition Zposition Zrotation Xrotation Yrotation
                    JOINT Character1_LeftHandMiddle3
                    {
                      OFFSET 0.264032 -0.321119 0.00884256
                      CHANNELS 6 Xposition Yposition Zposition Zrotation Xrotation Yrotation
                      JOINT Character1_LeftHandMiddle4
                      {
                        OFFSET 0.180854 -0.241264 0.00658414
                        CHANNELS 6 Xposition Yposition Zposition Zrotation Xrotation Yrotation
                        End Site
                        {
                          OFFSET 0 0 0
                        }
                      }
                    }
                  }
                }
                JOINT Character1_LeftHandRing1
                {
                  OFFSET 1.48599 -0.345215 -0.172738
                  CHANNELS 6 Xposition Yposition Zposition Zrotation Xrotation Yrotation
                  JOINT Character1_LeftHandRing2
                  {
                    OFFSET 0.522196 -0.611354 0.0123873
                    CHANNELS 6 Xposition Yposition Zposition Zrotation Xrotation Yrotation
                    JOINT Character1_LeftHandRing3
                    {
                      OFFSET 0.273491 -0.359549 0.00739136
                      CHANNELS 6 Xposition Yposition Zposition Zrotation Xrotation Yrotation
                      JOINT Character1_LeftHandRing4
                      {
                        OFFSET 0.175075 -0.230164 0.0047312
                        CHANNELS 6 Xposition Yposition Zposition Zrotation Xrotation Yrotation
                        End Site
                        {
                          OFFSET 0 0 0
                        }
                      }
                    }
                  }
                }
                JOINT Character1_LeftHandPinky1
                {
                  OFFSET 1.45006 -0.450852 -0.482263
                  CHANNELS 6 Xposition Yposition Zposition Zrotation Xrotation Yrotation
                  JOINT Character1_LeftHandPinky2
                  {
                    OFFSET 0.289756 -0.353117 -0.0298237
                    CHANNELS 6 Xposition Yposition Zposition Zrotation Xrotation Yrotation
                    JOINT Character1_LeftHandPinky3
                    {
                      OFFSET 0.271225 -0.36969 -0.0280321
                      CHANNELS 6 Xposition Yposition Zposition Zrotation Xrotation Yrotation
                      JOINT Character1_LeftHandPinky4
                      {
                        OFFSET 0.192971 -0.263028 -0.019944
                        CHANNELS 6 Xposition Yposition Zposition Zrotation Xrotation Yrotation
                        End Site
                        {
                          OFFSET 0 0 0
                        }
                      }
                    }
                  }
                }
              }
            }
          }
        }
        JOINT Character1_RightShoulder
        {
          OFFSET -1.05262 2.257 0
          CHANNELS 6 Xposition Yposition Zposition Zrotation Xrotation Yrotation
          JOINT Character1_RightArm
          {
            OFFSET -1.59242 -0.16355 -0.172858
            CHANNELS 6 Xposition Yposition Zposition Zrotation Xrotation Yrotation
            JOINT Character1_RightForeArm
            {
              OFFSET -4.24536 -1.87803 -0.325405
              CHANNELS 6 Xposition Yposition Zposition Zrotation Xrotation Yrotation
              JOINT Character1_RightHand
              {
                OFFSET -2.98616 -1.30581 0.326125
                CHANNELS 6 Xposition Yposition Zposition Zrotation Xrotation Yrotation
                JOINT Character1_RightHandThumb1
                {
                  OFFSET -0.707168 -0.296375 0.777354
                  CHANNELS 6 Xposition Yposition Zposition Zrotation Xrotation Yrotation
                  JOINT Character1_RightHandThumb2
                  {
                    OFFSET -0.248522 -0.159517 0.33158
                    CHANNELS 6 Xposition Yposition Zposition Zrotation Xrotation Yrotation
                    JOINT Character1_RightHandThumb3
                    {
                      OFFSET -0.259194 -0.254063 0.227961
                      CHANNELS 6 Xposition Yposition Zposition Zrotation Xrotation Yrotation
                      JOINT Character1_RightHandThumb4
                      {
                        OFFSET -0.226668 -0.258211 0.206783
                        CHANNELS 6 Xposition Yposition Zposition Zrotation Xrotation Yrotation
                        End Site
                        {
                          OFFSET 0 0 0
                        }
                      }
                    }
                  }
                }
                JOINT Character1_RightHandIndex1
                {
                  OFFSET -1.48444 -0.354191 0.611987
                  CHANNELS 6 Xposition Yposition Zposition Zrotation Xrotation Yrotation
                  JOINT Character1_RightHandIndex2
                  {
                    OFFSET -0.504725 -0.451986 0.0493911
                    CHANNELS 6 Xposition Yposition Zposition Zrotation Xrotation Yrotation
                    JOINT Character1_RightHandIndex3
                    {
                      OFFSET -0.296443 -0.265513 0.0299125
                      CHANNELS 6 Xposition Yposition Zposition Zrotation Xrotation Yrotation
                      JOINT Character1_RightHandIndex4
                      {
                        OFFSET -0.197651 -0.217279 0.0208598
                        CHANNELS 6 Xposition Yposition Zposition Zrotation Xrotation Yrotation
                        End Site
                        {
                          OFFSET 0 0 0
                        }
                      }
                    }
                  }
                }
                JOINT Character1_RightHandMiddle1
                {
                  OFFSET -1.48537 -0.31703 0.212679
                  CHANNELS 6 Xposition Yposition Zposition Zrotation Xrotation Yrotation
                  JOINT Character1_RightHandMiddle2
                  {
                    OFFSET -0.672061 -0.620937 0.0176347
                    CHANNELS 6 Xposition Yposition Zposition Zrotation Xrotation Yrotation
                    JOINT Character1_RightHandMiddle3
                    {
                      OFFSET -0.264031 -0.321119 0.00884257
                      CHANNELS 6 Xposition Yposition Zposition Zrotation Xrotation Yrotation
                      JOINT Character1_RightHandMiddle4
                      {
                        OFFSET -0.180854 -0.241264 0.00658401
                        CHANNELS 6 Xposition Yposition Zposition Zrotation Xrotation Yrotation
                        End Site
                        {
                          OFFSET 0 0 0
                        }
                      }
                    }
                  }
                }
                JOINT Character1_RightHandRing1
                {
                  OFFSET -1.48599 -0.345215 -0.172738
                  CHANNELS 6 Xposition Yposition Zposition Zrotation Xrotation Yrotation
                  JOINT Character1_RightHandRing2
                  {
                    OFFSET -0.522198 -0.611355 0.0123874
                    CHANNELS 6 Xposition Yposition Zposition Zrotation Xrotation Yrotation
                    JOINT Character1_RightHandRing3
                    {
                      OFFSET -0.27349 -0.359549 0.00739126
                      CHANNELS 6 Xposition Yposition Zposition Zrotation Xrotation Yrotation
                      JOINT Character1_RightHandRing4
                      {
                        OFFSET -0.175076 -0.230166 0.00473136
                        CHANNELS 6 Xposition Yposition Zposition Zrotation Xrotation Yrotation
                        End Site
                        {
                          OFFSET 0 0 0
                        }
                      }
                    }
                  }
                }
                JOINT Character1_RightHandPinky1
                {
                  OFFSET -1.45006 -0.450851 -0.482263
                  CHANNELS 6 Xposition Yposition Zposition Zrotation Xrotation Yrotation
                  JOINT Character1_RightHandPinky2
                  {
                    OFFSET -0.289757 -0.353119 -0.0298238
                    CHANNELS 6 Xposition Yposition Zposition Zrotation Xrotation Yrotation
                    JOINT Character1_RightHandPinky3
                    {
                      OFFSET -0.271225 -0.36969 -0.028032
                      CHANNELS 6 Xposition Yposition Zposition Zrotation Xrotation Yrotation
                      JOINT Character1_RightHandPinky4
                      {
                        OFFSET -0.192971 -0.263025 -0.0199442
                        CHANNELS 6 Xposition Yposition Zposition Zrotation Xrotation Yrotation
                        End Site
                        {
                          OFFSET 0 0 0
                        }
                      }
                    }
                  }
                }
              }
            }
          }
        }
        JOINT Character1_Neck
        {
          OFFSET 0 2.01813 0
          CHANNELS 6 Xposition Yposition Zposition Zrotation Xrotation Yrotation
          JOINT Character1_Head
          {
            OFFSET 0 3.0075 0
            CHANNELS 6 Xposition Yposition Zposition Zrotation Xrotation Yrotation
            End Site
            {
              OFFSET 0 0 0
            }
          }
        }
      }
    }
  }
}
MOTION
Frames:	2
Frame Time:	0.0166667
0.0218657 18.1014 -0.0469418 -0.251218 -0.209278 -0.066821 1.33984 -0.942852 2.48145e-011 -3.7274 -4.58027 -0.196631 1.03111 -5.48942 0.514162 3.94546 19.5993 -2.23513 0.584473 -7.37543 -1.61389 -1.02756 26.0227 2.43873 0.308452 -0.815752 3.43202 1.47797e-014 -3.99417e-005 -2.77164e-014 -1.33984 -0.942852 4.40824e-012 44.0318 -70.8058 48.4032 -1.03111 -5.48942 0.514161 -55.5052 88.468 48.8821 -0.584471 -7.37543 -1.61389 11.2254 31.4578 -7.76281 -0.308451 -0.81575 3.43202 1.20403e-014 -1.40104e-005 2.30329e-014 -8.62964e-010 1.05263 -8.13863e-011 -0.615632 -0.360945 0.0968291 4.29627e-010 2.01813 -7.66554e-008 -0.013978 -0.0511712 0.0610342 -2.29502e-010 2.01813 -7.23706e-008 -0.0139244 -0.0512028 0.0610175 1.05262 2.25701 -2.72443e-007 -0.711353 -0.0784976 -0.016858 1.59242 -0.163556 -0.172859 6.58646 -3.63516 -3.23913 4.24524 -1.87834 -0.325187 -4.58471 -18.3277 -75.9053 2.98615 -1.30582 0.326151 -0.251229 -24.7377 10.4685 0.707166 -0.296377 0.777354 -4.93766e-005 -2.36359e-005 -3.57845e-008 0.248522 -0.159514 0.33158 5.62561e-005 3.11204e-006 -1.94263e-005 0.259195 -0.254061 0.227961 6.58875e-005 1.61897e-005 7.33309e-005 0.226667 -0.258213 0.206783 -5.55158e-005 -1.36509e-005 -6.24482e-005 1.48444 -0.354189 0.611987 -4.93766e-005 -2.36359e-005 -3.57845e-008 0.504725 -0.451988 0.0493911 5.62561e-005 3.11204e-006 -1.94263e-005 0.296442 -0.265513 0.0299125 6.58875e-005 1.61897e-005 7.33309e-005 0.197652 -0.217277 0.0208597 -5.55158e-005 -1.36509e-005 -6.24482e-005 1.48537 -0.317031 0.21268 -4.93766e-005 -2.36359e-005 -3.57845e-008 0.67206 -0.620935 0.0176341 5.62561e-005 3.11204e-006 -1.94263e-005 0.264032 -0.32112 0.00884206 6.58875e-005 1.61897e-005 7.33309e-005 0.180854 -0.241264 0.0065845 -5.55158e-005 -1.36509e-005 -6.24482e-005 1.48599 -0.345215 -0.172738 -4.93766e-005 -2.36359e-005 -3.57845e-008 0.522197 -0.611355 0.0123873 5.62561e-005 3.11204e-006 -1.94263e-005 0.273491 -0.359549 0.00739151 6.58875e-005 1.61897e-005 7.33309e-005 0.175075 -0.230163 0.00473113 -5.55158e-005 -1.36509e-005 -6.24482e-005 1.45006 -0.450852 -0.482264 -4.93766e-005 -2.36359e-005 -3.57845e-008 0.289756 -0.353117 -0.0298241 5.62561e-005 3.11204e-006 -1.94263e-005 0.271225 -0.369691 -0.0280321 6.58875e-005 1.61897e-005 7.33309e-005 0.192971 -0.263027 -0.0199439 -5.55158e-005 -1.36509e-005 -6.24482e-005 -1.05262 2.257 1.75801e-007 1.51448e-008 4.17102e-006 1.31128e-012 -1.59242 -0.163552 -0.172859 14.6631 10.6378 -21.2267 -4.24523 -1.8783 -0.325435 5.75809 -2.79699 41.795 -2.98615 -1.30582 0.326122 0.491116 -6.2469 -2.70516 -0.707168 -0.296376 0.777352 -1.04791e-005 -1.26438e-006 -8.29326e-007 -0.248521 -0.159518 0.33158 4.90883e-005 -1.35443e-007 -1.97076e-005 -0.259194 -0.254063 0.227961 3.82295e-005 -3.63762e-007 3.28979e-006 -0.226667 -0.25821 0.206782 -2.32421e-005 -1.26098e-006 6.75591e-007 -1.48444 -0.354191 0.611986 -1.04791e-005 -1.26438e-006 -8.29326e-007 -0.504725 -0.451988 0.0493907 4.90883e-005 -1.35443e-007 -1.97076e-005 -0.296442 -0.265512 0.0299127 3.82295e-005 -3.63762e-007 3.28979e-006 -0.197651 -0.21728 0.0208597 -2.32421e-005 -1.26098e-006 6.75591e-007 -1.48537 -0.317031 0.212679 -1.04791e-005 -1.26438e-006 -8.29326e-007 -0.672059 -0.620937 0.0176344 4.90883e-005 -1.35443e-007 -1.97076e-005 -0.264031 -0.32112 0.0088424 3.82295e-005 -3.63762e-007 3.28979e-006 -0.180854 -0.241265 0.00658397 -2.32421e-005 -1.26098e-006 6.75591e-007 -1.48599 -0.345215 -0.172738 -1.04791e-005 -1.26438e-006 -8.29326e-007 -0.522198 -0.611356 0.0123875 4.90883e-005 -1.35443e-007 -1.97076e-005 -0.273488 -0.359549 0.0073915 3.82295e-005 -3.63762e-007 3.28979e-006 -0.175077 -0.230166 0.0047311 -2.32421e-005 -1.26098e-006 6.75591e-007 -1.45006 -0.450853 -0.482263 -1.04791e-005 -1.26438e-006 -8.29326e-007 -0.289757 -0.353119 -0.0298238 4.90883e-005 -1.35443e-007 -1.97076e-005 -0.271224 -0.36969 -0.0280317 3.82295e-005 -3.63762e-007 3.28979e-006 -0.192971 -0.263026 -0.019944 -2.32421e-005 -1.26098e-006 6.75591e-007 6.01478e-010 2.01813 1.41681e-007 4.12104e-011 3.33882e-008 -3.69003e-008 -4.79209e-010 3.0075 -1.82775e-007 -1.63153e-015 -1.29491e-008 -2.79256e-008 
0.0218494 18.1013 -0.0469664 -0.250126 -0.210803 -0.202355 1.33984 -0.942851 2.63313e-011 -3.82248 -6.6568 -0.557217 1.03111 -5.48942 0.514162 4.01465 23.7913 -1.85721 0.584473 -7.37543 -1.61389 -1.05905 24.9062 2.35844 0.308452 -0.815751 3.43202 1.4705e-014 -4.15158e-005 -2.76669e-014 -1.33984 -0.942851 4.67772e-012 43.1439 -70.7377 47.6107 -1.03111 -5.48942 0.514162 -31.2003 87.3233 24.2133 -0.584471 -7.37543 -1.61389 10.4387 29.0508 -7.00005 -0.308452 -0.815752 3.43202 1.20048e-014 -1.47116e-005 2.289e-014 -9.15714e-010 1.05262 -8.63611e-011 -0.615626 -0.360946 0.0927674 4.39e-010 2.01813 -7.66524e-008 -0.0137283 -0.051239 -0.218191 -2.60419e-010 2.01813 -7.21069e-008 -0.0139246 -0.0512035 -0.218206 1.05262 2.25701 -2.71308e-007 -0.711353 -0.0784974 -0.016858 1.59242 -0.163557 -0.172859 8.64386 -5.48803 -5.17472 4.24523 -1.87835 -0.325223 -4.36435 -20.7894 -74.4923 2.98614 -1.30584 0.32615 -0.0168228 -26.6324 10.9636 0.707166 -0.296378 0.777353 -5.00899e-005 -2.47846e-005 -3.79719e-008 0.248522 -0.159515 0.331579 5.57364e-005 3.29103e-006 -1.93916e-005 0.259195 -0.254061 0.227961 6.78774e-005 1.67899e-005 7.35694e-005 0.226667 -0.258212 0.206783 -5.61942e-005 -1.37596e-005 -6.29452e-005 1.48444 -0.354189 0.611987 -5.00899e-005 -2.47846e-005 -3.79719e-008 0.504724 -0.451988 0.0493903 5.57364e-005 3.29103e-006 -1.93916e-005 0.296442 -0.265513 0.0299122 6.78774e-005 1.67899e-005 7.35694e-005 0.197652 -0.217278 0.0208598 -5.61942e-005 -1.37596e-005 -6.29452e-005 1.48537 -0.317033 0.212679 -5.00899e-005 -2.47846e-005 -3.79719e-008 0.672059 -0.620935 0.0176341 5.57364e-005 3.29103e-006 -1.93916e-005 0.264033 -0.321119 0.00884236 6.78774e-005 1.67899e-005 7.35694e-005 0.180854 -0.241265 0.00658383 -5.61942e-005 -1.37596e-005 -6.29452e-005 1.48599 -0.345216 -0.172738 -5.00899e-005 -2.47846e-005 -3.79719e-008 0.522197 -0.611354 0.0123876 5.57364e-005 3.29103e-006 -1.93916e-005 0.273491 -0.359548 0.00739117 6.78774e-005 1.67899e-005 7.35694e-005 0.175075 -0.230164 0.00473124 -5.61942e-005 -1.37596e-005 -6.29452e-005 1.45006 -0.450851 -0.482263 -5.00899e-005 -2.47846e-005 -3.79719e-008 0.289756 -0.353117 -0.0298242 5.57364e-005 3.29103e-006 -1.93916e-005 0.271225 -0.36969 -0.0280323 6.78774e-005 1.67899e-005 7.35694e-005 0.192971 -0.263027 -0.0199442 -5.61942e-005 -1.37596e-005 -6.29452e-005 -1.05262 2.257 1.7805e-007 1.60224e-008 4.42378e-006 1.39418e-012 -1.59242 -0.163552 -0.172859 13.8955 10.8803 -22.0118 -4.24523 -1.8783 -0.325412 5.50007 -4.27289 42.3662 -2.98616 -1.30581 0.32612 0.512009 -6.59834 -2.85602 -0.707168 -0.296376 0.777353 -1.02951e-005 -1.34167e-006 -8.77173e-007 -0.248522 -0.159517 0.331579 4.92707e-005 -1.44309e-007 -2.07321e-005 -0.259195 -0.254063 0.227961 3.82238e-005 -3.85831e-007 3.48119e-006 -0.226667 -0.25821 0.206782 -2.32792e-005 -1.34055e-006 7.17031e-007 -1.48444 -0.354191 0.611986 -1.02951e-005 -1.34167e-006 -8.77173e-007 -0.504725 -0.451987 0.0493907 4.92707e-005 -1.44309e-007 -2.07321e-005 -0.296442 -0.265512 0.0299126 3.82238e-005 -3.85831e-007 3.48119e-006 -0.197652 -0.21728 0.0208598 -2.32792e-005 -1.34055e-006 7.17031e-007 -1.48537 -0.31703 0.212679 -1.02951e-005 -1.34167e-006 -8.77173e-007 -0.67206 -0.620937 0.0176344 4.92707e-005 -1.44309e-007 -2.07321e-005 -0.264031 -0.32112 0.00884241 3.82238e-005 -3.85831e-007 3.48119e-006 -0.180854 -0.241265 0.00658396 -2.32792e-005 -1.34055e-006 7.17031e-007 -1.48599 -0.345215 -0.172738 -1.02951e-005 -1.34167e-006 -8.77173e-007 -0.522198 -0.611356 0.0123874 4.92707e-005 -1.44309e-007 -2.07321e-005 -0.27349 -0.359548 0.00739113 3.82238e-005 -3.85831e-007 3.48119e-006 -0.175076 -0.230165 0.00473108 -2.32792e-005 -1.34055e-006 7.17031e-007 -1.45006 -0.450852 -0.482263 -1.02951e-005 -1.34167e-006 -8.77173e-007 -0.289757 -0.353119 -0.0298238 4.92707e-005 -1.44309e-007 -2.07321e-005 -0.271225 -0.36969 -0.028032 3.82238e-005 -3.85831e-007 3.48119e-006 -0.192971 -0.263026 -0.019944 -2.32792e-005 -1.34055e-006 7.17031e-007 5.67024e-010 2.01812 1.38573e-007 4.37291e-011 3.54056e-008 -3.68954e-008 -4.84199e-010 3.0075 -1.83709e-007 -1.89903e-015 -1.37319e-008 -2.79219e-008 
